<svg width="156" height="23" viewBox="0 0 156 23" fill="none" xmlns="http://www.w3.org/2000/svg">
<rect x="107" width="2" height="23" fill="#D1D1D1"/>
<path d="M75.0004 2C73.0146 2 71.3845 3.64715 71.3845 5.65385V6.38462H67.8136L67.7687 7.07008L67.0456 20.2239L67 21H83L82.9552 20.2232L82.232 7.06935L82.1864 6.38462H78.6162V5.65385C78.6162 3.64715 76.9862 2 75.0004 2ZM75.0004 3.46154C75.5757 3.46154 76.1276 3.69251 76.5344 4.10365C76.9413 4.51479 77.1699 5.07241 77.1699 5.65385V6.38462H72.8309V5.65385C72.8309 5.07241 73.0594 4.51479 73.4663 4.10365C73.8732 3.69251 74.425 3.46154 75.0004 3.46154ZM69.1695 7.84615H71.3845V10.0385H72.8309V7.84615H77.1699V10.0385H78.6162V7.84615H80.8312L81.464 19.5385H68.5374L69.1695 7.84615Z" fill="#393280"/>
<rect x="41" width="2" height="23" fill="#D1D1D1"/>
<path d="M8.5 2C5.22325 2 2.55 4.71614 2.55 8.04545C2.55 10.1268 3.5955 11.975 5.1799 13.0658C2.14795 14.3871 0 17.4444 0 21H1.7C1.7 17.1741 4.7345 14.0909 8.5 14.0909C12.2655 14.0909 15.3 17.1741 15.3 21H17C17 17.4444 14.8521 14.388 11.8201 13.0649C12.6287 12.5103 13.2913 11.7627 13.7498 10.8877C14.2082 10.0126 14.4487 9.03676 14.45 8.04545C14.45 4.71614 11.7768 2 8.5 2ZM8.5 3.72727C10.857 3.72727 12.75 5.65059 12.75 8.04545C12.75 10.4403 10.857 12.3636 8.5 12.3636C6.14295 12.3636 4.25 10.4403 4.25 8.04545C4.25 5.65059 6.14295 3.72727 8.5 3.72727Z" fill="#393280"/>
<path d="M134.339 11.711C131.959 8.61463 132.752 3.97011 136.718 2.42194C140.684 0.873771 143.064 3.97011 143.857 5.51829C144.65 3.97011 147.823 0.873771 151.79 2.42194C155.756 3.97011 155.756 8.61463 153.376 11.711C150.996 14.8073 143.857 21 143.857 21C143.857 21 136.718 14.8073 134.339 11.711Z" stroke="#393280" stroke-width="2" stroke-linecap="round" stroke-linejoin="round"/>
</svg>
