<svg width="93" height="24" viewBox="0 0 93 24" fill="none" xmlns="http://www.w3.org/2000/svg">
<path d="M0.958413 10.5822C0.704226 10.5822 0.46045 10.4812 0.280713 10.3015C0.100976 10.1218 0 9.87799 0 9.6238V1.95841C0 1.70423 0.100976 1.46045 0.280713 1.28071C0.46045 1.10098 0.704226 1 0.958413 1H8.62572C8.87991 1 9.12368 1.10098 9.30342 1.28071C9.48316 1.46045 9.58413 1.70423 9.58413 1.95841V9.6238C9.58413 9.87799 9.48316 10.1218 9.30342 10.3015C9.12368 10.4812 8.87991 10.5822 8.62572 10.5822H0.958413ZM14.3762 10.5822C14.122 10.5822 13.8782 10.4812 13.6985 10.3015C13.5188 10.1218 13.4178 9.87799 13.4178 9.6238V1.95841C13.4178 1.70423 13.5188 1.46045 13.6985 1.28071C13.8782 1.10098 14.122 1 14.3762 1H22.0416C22.2958 1 22.5396 1.10098 22.7193 1.28071C22.899 1.46045 23 1.70423 23 1.95841V9.6238C23 9.87799 22.899 10.1218 22.7193 10.3015C22.5396 10.4812 22.2958 10.5822 22.0416 10.5822H14.3762ZM0.958413 24C0.704226 24 0.46045 23.899 0.280713 23.7193C0.100976 23.5396 0 23.2958 0 23.0416V15.3743C0 15.1201 0.100976 14.8763 0.280713 14.6966C0.46045 14.5168 0.704226 14.4159 0.958413 14.4159H8.62572C8.87991 14.4159 9.12368 14.5168 9.30342 14.6966C9.48316 14.8763 9.58413 15.1201 9.58413 15.3743V23.0416C9.58413 23.2958 9.48316 23.5396 9.30342 23.7193C9.12368 23.899 8.87991 24 8.62572 24H0.958413ZM14.3762 24C14.122 24 13.8782 23.899 13.6985 23.7193C13.5188 23.5396 13.4178 23.2958 13.4178 23.0416V15.3743C13.4178 15.1201 13.5188 14.8763 13.6985 14.6966C13.8782 14.5168 14.122 14.4159 14.3762 14.4159H22.0416C22.2958 14.4159 22.5396 14.5168 22.7193 14.6966C22.899 14.8763 23 15.1201 23 15.3743V23.0416C23 23.2958 22.899 23.5396 22.7193 23.7193C22.5396 23.899 22.2958 24 22.0416 24H14.3762Z" fill="#ED553B"/>
<path d="M91.4694 9.66699H65.5306C64.6853 9.66699 64 10.4893 64 11.5037V11.697C64 12.7114 64.6853 13.5337 65.5306 13.5337H91.4694C92.3147 13.5337 93 12.7114 93 11.697V11.5037C93 10.4893 92.3147 9.66699 91.4694 9.66699Z" fill="black"/>
<path d="M91.4694 19.333H65.5306C64.6853 19.333 64 20.1553 64 21.1697V21.363C64 22.3774 64.6853 23.1997 65.5306 23.1997H91.4694C92.3147 23.1997 93 22.3774 93 21.363V21.1697C93 20.1553 92.3147 19.333 91.4694 19.333Z" fill="black"/>
<path d="M91.4694 0H65.5306C64.6853 0 64 0.822303 64 1.83667V2.03C64 3.04436 64.6853 3.86667 65.5306 3.86667H91.4694C92.3147 3.86667 93 3.04436 93 2.03V1.83667C93 0.822303 92.3147 0 91.4694 0Z" fill="black"/>
</svg>
